# xmcd CD database file
#
# Track frame offsets:
#	150
#	2475
#	15780
#	41410
#	60920
#	85917
#	108167
#	127422
#	149185
#	167055
#	184402
#	211602
#
# Disc length: 2892 seconds
#
# Revision: 0
# Processed by: cddbd v1.5.1PL0 Copyright (c) Steve Scherf et al.
# Submitted via: CDex 1.50beta8
#
DISCID=980b4a0c
DTITLE=any Artist - THE END OF THE CENTURY ROCKERS ?
DYEAR=1900
DGENRE=JPop
TTITLE0=INTO THE NOIR
TTITLE1=Stay with me(Re-Mix Version) - Romance for〜
TTITLE2=傷跡(Re-Mix Version) - 雫...
TTITLE3=聖域-サンクチュアリ- - 呪麗
TTITLE4=you・・・ - Orphee
TTITLE5=Darling(Re-Mix Version) - CROW-SIS
TTITLE6=Sing Love Song - STYLE
TTITLE7=進化の果て - Lakshana
TTITLE8=RHAPSODY(STYLE MORE CRAZY) - FANATIC◆CRISIS
TTITLE9=EGOISM - FANATIC◆CRISIS
TTITLE10=あの日から君の存在が僕を苦しめる - WITH SEXY
TTITLE11=OUT OF THE NOIR
EXTD=
EXTT0=
EXTT1=
EXTT2=
EXTT3=
EXTT4=
EXTT5=
EXTT6=
EXTT7=
EXTT8=
EXTT9=
EXTT10=
EXTT11=
PLAYORDER=
